<svg xmlns="http://www.w3.org/2000/svg" id="Layer_1" data-name="Layer 1" viewBox="0 0 298.56 45.9"><title>AQ_Logo_White</title><path d="M102,41.18a14.48,14.48,0,1,1,10.07-24.85h.41l4-6A21.87,21.87,0,1,0,117,42.65l-5.09-5.41A14.31,14.31,0,0,1,102,41.18Z" transform="translate(-3.87 -4.8)" fill="#fff"></path><polygon points="126.92 0.06 119.15 0.06 119.15 0.06 119.15 7.83 119.15 18.9 119.15 26.67 119.15 36.04 119.15 43.75 119.15 43.81 147.07 43.81 147.07 36.04 126.92 36.04 126.92 26.67 144.35 26.67 144.35 18.9 126.92 18.9 126.92 7.83 147.07 7.83 147.07 0.06 126.92 0.06 126.92 0.06" fill="#fff"></polygon><polygon points="162.57 0.06 154.8 0.06 154.8 36.04 154.8 43.75 154.8 43.81 182.72 43.81 182.72 36.04 162.57 36.04 162.57 0.06" fill="#fff"></polygon><polygon points="196.9 0.06 189.13 0.06 189.13 36.04 189.13 36.04 189.13 43.81 217.05 43.81 217.05 36.04 196.9 36.04 196.9 0.06" fill="#fff"></polygon><path d="M36.72,14.83Z" transform="translate(-3.87 -4.8)" fill="#fff"></path><path d="M36.73,14.82h0Z" transform="translate(-3.87 -4.8)" fill="#fff"></path><path d="M77,26.74A21.88,21.88,0,0,0,36.85,14.67s4.08,9.15,4.19,8.66A14.47,14.47,0,1,1,67.31,34.49l-4.9-6.35-5.86,4.52,5.3,6.88a14.45,14.45,0,0,1-19.46-5.92L30.09,4.8H21.65L3.87,48.61h8L16.57,37H29.62l3.05-7.29,1.64,3.86A21.89,21.89,0,0,0,66.42,45.46l4,5.25h9.34L72,40.6A21.75,21.75,0,0,0,77,26.74ZM19.72,29.21,25.93,13.9l6.53,15.31Z" transform="translate(-3.87 -4.8)" fill="#fff"></path><path d="M36.85,14.67l0,.06Z" transform="translate(-3.87 -4.8)" fill="#fff"></path><path d="M36.81,14.73l-.08.09Z" transform="translate(-3.87 -4.8)" fill="#fff"></path><path d="M242.93,4.86a21.86,21.86,0,1,0,21.86,21.86A21.86,21.86,0,0,0,242.93,4.86Zm0,36.29a14.43,14.43,0,1,1,14.43-14.43A14.43,14.43,0,0,1,242.93,41.15Z" transform="translate(-3.87 -4.8)" fill="#fff"></path><path d="M290.71,30.52A13.27,13.27,0,0,0,285.9,4.89h-9.13v0H269V48.55h7.76V31.44h5.32L293.23,49h9.2Zm-4.81-6.78h-9.13V12.59h9.13a5.58,5.58,0,0,1,0,11.15Z" transform="translate(-3.87 -4.8)" fill="#fff"></path></svg>